<?xml version="1.0" standalone="no"?>
<svg xmlns:xlink="http://www.w3.org/1999/xlink" id="wave" style="transform:rotate(180deg); transition: 0.3s" viewBox="0 0 1440 190" version="1.1" xmlns="http://www.w3.org/2000/svg"><defs><linearGradient id="sw-gradient-0" x1="0" x2="0" y1="1" y2="0"><stop stop-color="rgba(253, 241, 229, 1)" offset="0%"/><stop stop-color="rgba(253, 241, 229, 1)" offset="100%"/></linearGradient></defs><path style="transform:translate(0, 0px); opacity:1" fill="url(#sw-gradient-0)" d="M0,114L80,101.3C160,89,320,63,480,72.8C640,82,800,127,960,136.2C1120,146,1280,120,1440,101.3C1600,82,1760,70,1920,60.2C2080,51,2240,44,2400,50.7C2560,57,2720,76,2880,91.8C3040,108,3200,120,3360,126.7C3520,133,3680,133,3840,133C4000,133,4160,133,4320,133C4480,133,4640,133,4800,129.8C4960,127,5120,120,5280,98.2C5440,76,5600,38,5760,44.3C5920,51,6080,101,6240,129.8C6400,158,6560,165,6720,142.5C6880,120,7040,70,7200,69.7C7360,70,7520,120,7680,120.3C7840,120,8000,70,8160,47.5C8320,25,8480,32,8640,57C8800,82,8960,127,9120,126.7C9280,127,9440,82,9600,66.5C9760,51,9920,63,10080,85.5C10240,108,10400,139,10560,139.3C10720,139,10880,108,11040,107.7C11200,108,11360,139,11440,155.2L11520,171L11520,190L11440,190C11360,190,11200,190,11040,190C10880,190,10720,190,10560,190C10400,190,10240,190,10080,190C9920,190,9760,190,9600,190C9440,190,9280,190,9120,190C8960,190,8800,190,8640,190C8480,190,8320,190,8160,190C8000,190,7840,190,7680,190C7520,190,7360,190,7200,190C7040,190,6880,190,6720,190C6560,190,6400,190,6240,190C6080,190,5920,190,5760,190C5600,190,5440,190,5280,190C5120,190,4960,190,4800,190C4640,190,4480,190,4320,190C4160,190,4000,190,3840,190C3680,190,3520,190,3360,190C3200,190,3040,190,2880,190C2720,190,2560,190,2400,190C2240,190,2080,190,1920,190C1760,190,1600,190,1440,190C1280,190,1120,190,960,190C800,190,640,190,480,190C320,190,160,190,80,190L0,190Z"/></svg>